<?xml version="1.0"?>
<svg xmlns="http://www.w3.org/2000/svg" xmlns:xlink="http://www.w3.org/1999/xlink" xmlns:svgjs="http://svgjs.com/svgjs" version="1.1" width="512" height="512" x="0" y="0" viewBox="0 0 512 512" style="enable-background:new 0 0 512 512" xml:space="preserve" class=""><g><path xmlns="http://www.w3.org/2000/svg" d="m280 256h-16v-80h-16v80h-16v-80h-8c-13.253906 0-24-10.746094-24-24s10.746094-24 24-24 24 10.746094 24 24v8h16v-8c0-13.253906 10.746094-24 24-24s24 10.746094 24 24-10.746094 24-24 24h-8zm0-96h8c4.417969 0 8-3.582031 8-8s-3.582031-8-8-8-8 3.582031-8 8zm-56-16c-4.417969 0-8 3.582031-8 8s3.582031 8 8 8h8v-8c0-4.417969-3.582031-8-8-8zm0 0" fill="#ffffff" data-original="#000000" style="" class=""/><path xmlns="http://www.w3.org/2000/svg" d="m232 384h16v80h-16zm0 0" fill="#ffffff" data-original="#000000" style="" class=""/><path xmlns="http://www.w3.org/2000/svg" d="m264 368h16v32h-16zm0 0" fill="#ffffff" data-original="#000000" style="" class=""/><path xmlns="http://www.w3.org/2000/svg" d="m280 432h16v48h-16zm0 0" fill="#ffffff" data-original="#000000" style="" class=""/><path xmlns="http://www.w3.org/2000/svg" d="m328 400h16v64h-16zm0 0" fill="#ffffff" data-original="#000000" style="" class=""/><path xmlns="http://www.w3.org/2000/svg" d="m392 448h16v48h-16zm0 0" fill="#ffffff" data-original="#000000" style="" class=""/><path xmlns="http://www.w3.org/2000/svg" d="m440 480h16v32h-16zm0 0" fill="#ffffff" data-original="#000000" style="" class=""/><path xmlns="http://www.w3.org/2000/svg" d="m184 416h16v80h-16zm0 0" fill="#ffffff" data-original="#000000" style="" class=""/><path xmlns="http://www.w3.org/2000/svg" d="m120 448h16v32h-16zm0 0" fill="#ffffff" data-original="#000000" style="" class=""/><path xmlns="http://www.w3.org/2000/svg" d="m72 464h16v32h-16zm0 0" fill="#ffffff" data-original="#000000" style="" class=""/><path xmlns="http://www.w3.org/2000/svg" d="m312 212.9375c31.273438-23.992188 43.785156-65.238281 31.117188-102.5625-12.667969-37.324219-47.703126-62.433594-87.117188-62.433594s-74.449219 25.109375-87.117188 62.433594c-12.667968 37.324219-.15625 78.570312 31.117188 102.5625v49.382812l56 88.664063 56-88.664063zm-56 108.078125-15.800781-25.015625h31.601562zm25.902344-41.015625h-51.804688l-10.097656-16h72zm17.523437-77.679688-3.425781 2.398438v43.28125h-80v-43.296875l-3.425781-2.398437c-27.25-18.972657-39.03125-53.445313-29.085938-85.128907 9.941407-31.683593 39.304688-53.246093 72.511719-53.246093s62.570312 21.5625 72.511719 53.246093c9.945312 31.683594-1.835938 66.15625-29.085938 85.128907zm0 0" fill="#ffffff" data-original="#000000" style="" class=""/><path xmlns="http://www.w3.org/2000/svg" d="m248 0h16v32h-16zm0 0" fill="#ffffff" data-original="#000000" style="" class=""/><path xmlns="http://www.w3.org/2000/svg" d="m179.074219 22.761719 13.855469-8.003907 16 27.714844-13.855469 8zm0 0" fill="#ffffff" data-original="#000000" style="" class=""/><path xmlns="http://www.w3.org/2000/svg" d="m130.753906 76.929688 8-13.855469 27.710938 16-8 13.855469zm0 0" fill="#ffffff" data-original="#000000" style="" class=""/><path xmlns="http://www.w3.org/2000/svg" d="m116 132h32v16h-32zm0 0" fill="#ffffff" data-original="#000000" style="" class=""/><path xmlns="http://www.w3.org/2000/svg" d="m303.074219 42.46875 15.996093-27.714844 13.859376 8-16 27.714844zm0 0" fill="#ffffff" data-original="#000000" style="" class=""/><path xmlns="http://www.w3.org/2000/svg" d="m345.523438 79.070312 27.714843-15.996093 8 13.855469-27.714843 16zm0 0" fill="#ffffff" data-original="#000000" style="" class=""/><path xmlns="http://www.w3.org/2000/svg" d="m364 132h32v16h-32zm0 0" fill="#ffffff" data-original="#000000" style="" class=""/><path xmlns="http://www.w3.org/2000/svg" d="m336 216h16v64h-16zm0 0" fill="#ffffff" data-original="#000000" style="" class=""/><path xmlns="http://www.w3.org/2000/svg" d="m160 256h16v48h-16zm0 0" fill="#ffffff" data-original="#000000" style="" class=""/><path xmlns="http://www.w3.org/2000/svg" d="m200 344.367188c-33.484375 3.195312-62.265625 25.097656-74.273438 56.519531-4.550781-.578125-9.136718-.875-13.726562-.886719-61.828125.066406-111.9335938 50.171875-112 112h16c-.082031-28.585938 12.617188-55.714844 34.621094-73.960938 22.003906-18.246093 51.011718-25.707031 79.089844-20.335937l7.136718 1.328125 2.015625-6.976562c8.972657-30.75 37.105469-51.933594 69.136719-52.054688h8v-40h-16zm0 0" fill="#ffffff" data-original="#000000" style="" class=""/><path xmlns="http://www.w3.org/2000/svg" d="m400 400c-4.589844.011719-9.175781.308594-13.726562.886719-12.007813-31.421875-40.789063-53.324219-74.273438-56.519531v-24.367188h-16v40h8c32.035156.117188 60.171875 21.300781 69.136719 52.054688l2.015625 6.976562 7.136718-1.328125c28.078126-5.371094 57.085938 2.089844 79.089844 20.335937 22.003906 18.246094 34.703125 45.375 34.621094 73.960938h16c-.066406-61.828125-50.171875-111.933594-112-112zm0 0" fill="#ffffff" data-original="#000000" style="" class=""/></g></svg>
