<?xml version="1.0"?>
<svg xmlns="http://www.w3.org/2000/svg" xmlns:xlink="http://www.w3.org/1999/xlink" xmlns:svgjs="http://svgjs.com/svgjs" version="1.1" width="512" height="512" x="0" y="0" viewBox="0 0 512 512" style="enable-background:new 0 0 512 512" xml:space="preserve" class=""><g><g xmlns="http://www.w3.org/2000/svg"><path d="m497.086 222.938c1.526.861 3.221 1.291 4.914 1.291 1.743 0 3.486-.456 5.043-1.365 3.069-1.793 4.957-5.081 4.957-8.635v-54.058c0-3.608-1.943-6.937-5.086-8.71l-246-138.79c-3.051-1.721-6.778-1.721-9.828 0l-246 138.79c-3.142 1.773-5.086 5.102-5.086 8.71v54.058c0 3.555 1.887 6.843 4.957 8.635 3.07 1.793 6.861 1.822 9.957.074l32.168-18.149v228.748h-37.082c-5.523 0-10 4.477-10 10v47.081c0 5.523 4.477 10 10 10h201c5.523 0 10-4.477 10-10s-4.477-10-10-10h-191v-27.081h472v27.081h-191c-5.522 0-10 4.477-10 10s4.478 10 10 10h201c5.522 0 10-4.477 10-10v-47.081c0-5.523-4.478-10-10-10h-37.081v-228.747zm-477.086-56.927 236-133.148 236 133.147v31.094l-231.086-130.375c-1.525-.86-3.22-1.29-4.914-1.29s-3.389.43-4.914 1.29l-231.086 130.376zm424.919 267.527h-377.838v-240.032l188.919-106.585 188.919 106.585z" fill="#ffffff" data-original="#000000" style=""/><circle cx="256" cy="490.618" r="10" fill="#ffffff" data-original="#000000" style=""/><path d="m210.42 199.364c-8.407 8.287-14.281 18.482-17.21 29.621-4.179-1.373-8.584-2.088-13.06-2.088-23.06 0-41.82 18.76-41.82 41.82 0 23.054 18.76 41.81 41.82 41.81h5.85v22.793l-26.348 8.785c-5.495-7.039-14.051-11.578-23.652-11.578-16.542 0-30 13.458-30 30s13.458 30 30 30c16.358 0 29.691-13.163 29.986-29.452l33.176-11.062c4.084-1.361 6.838-5.183 6.838-9.487v-30h40v21.72c-11.639 4.128-20 15.243-20 28.28 0 16.542 13.458 30 30 30s30-13.458 30-30c0-13.036-8.361-24.152-20-28.28v-21.72h40v30c0 4.304 2.754 8.125 6.838 9.487l33.176 11.061c.295 16.289 13.628 29.452 29.986 29.452 16.542 0 30-13.458 30-30s-13.458-30-30-30c-9.601 0-18.157 4.539-23.652 11.578l-26.348-8.785v-22.793h5.85c23.06 0 41.82-18.756 41.82-41.81 0-23.06-18.761-41.82-41.82-41.82-4.477 0-8.881.716-13.06 2.088-2.929-11.139-8.803-21.334-17.21-29.621-12.225-12.051-28.412-18.688-45.58-18.688s-33.355 6.638-45.58 18.689zm-74.42 171.162c-5.514 0-10-4.486-10-10s4.486-10 10-10 10 4.486 10 10-4.486 10-10 10zm120 0c-5.514 0-10-4.486-10-10s4.486-10 10-10 10 4.486 10 10-4.486 10-10 10zm120-20c5.514 0 10 4.486 10 10s-4.486 10-10 10-10-4.486-10-10 4.486-10 10-10zm-75.079-105.619c.059 3.898 2.377 7.406 5.94 8.989s7.72.951 10.651-1.619c3.958-3.469 9.05-5.38 14.338-5.38 12.032 0 21.82 9.789 21.82 21.82 0 12.026-9.788 21.81-21.82 21.81h-151.7c-12.031 0-21.82-9.784-21.82-21.81 0-12.031 9.789-21.82 21.82-21.82 5.289 0 10.381 1.911 14.338 5.38 2.93 2.569 7.088 3.202 10.651 1.619 3.562-1.582 5.881-5.091 5.939-8.988.366-24.389 20.518-44.23 44.921-44.23s44.556 19.84 44.922 44.229z" fill="#ffffff" data-original="#000000" style=""/></g></g></svg>
